#!OML:ASF \\Waltz\H\Terrain\Patient Classification 1\Animal2\Wednesday\Animal2.ASF
:FULLY-SPECIFIED
:DEGREES
1581
root 3.09529 16.7905 -20.8592 5.85232 -8.86407 -3.71811
lowerback 10.8023 -2.03597 -0.314165
upperback 0.0687424 -2.65802 1.4877
thorax -5.90269 -1.27599 2.15265
lowerneck -2.66003 3.00506 12.6508
upperneck 20.0254 4.80042 -10.4909
head 7.05924 2.40658 -5.25244
rclavicle -2.5345e-015 -1.39149e-014
rhumerus -11.6887 -19.9171 -18.4424
rradius 36.4593
rwrist 11.8299
rhand -18.1696 17.2685
rfingers 7.12502
rthumb 8.10665 -12.556
lclavicle -2.5345e-015 -1.39149e-014
lhumerus -31.5354 5.405 6.43874
lradius 38.6325
lwrist 11.4904
lhand -29.2723 29.5023
lfingers 7.12502
lthumb -2.6147 59.4661
rfemur -30.6913 -13.983 25.7393
rtibia 61.0094
rfoot -25.2315 -10.3212
rtoes 3.63515
lfemur -34.6189 19.1685 -22.5191
ltibia 51.3256
lfoot -24.8414 7.51249
ltoes -16.742
1582
root 3.09178 16.8052 -20.8379 5.97086 -8.88261 -3.8702
lowerback 10.8524 -2.00813 -0.150134
upperback 0.00550896 -2.5956 1.55248
thorax -6.00425 -1.24769 2.12303
lowerneck -3.21826 3.0298 12.7024
upperneck 20.3023 4.783 -10.4901
head 7.24861 2.38929 -5.26337
rclavicle 1.65488e-014 -1.13307e-014
rhumerus -12.1328 -19.1915 -18.3767
rradius 36.9512
rwrist 11.5073
rhand -17.4901 17.3367
rfingers 7.12502
rthumb 8.76244 -12.4614
lclavicle 1.65488e-014 -1.13307e-014
lhumerus -31.5246 5.45318 6.79
lradius 38.294
lwrist 11.2504
lhand -29.1245 30.0167
lfingers 7.12502
lthumb -2.472 59.9821
rfemur -30.794 -13.9209 25.9091
rtibia 60.6116
rfoot -25.6797 -9.77081
rtoes 3.49588
lfemur -34.5149 19.1996 -22.3395
ltibia 51.0675
lfoot -24.8728 7.11925
ltoes -15.2918
1583
root 3.09133 16.8292 -20.8104 6.00163 -8.82815 -4.04285
lowerback 10.8385 -2.01004 0.0905548
upperback -0.0267713 -2.56377 1.61524
thorax -6.03939 -1.2378 2.04906
lowerneck -3.16453 2.97863 12.7694
upperneck 20.1175 4.71647 -10.5665
head 7.17308 2.35751 -5.30243
rclavicle -5.64548e-014 2.18663e-015
rhumerus -12.1095 -19.3098 -18.3817
rradius 36.5501
rwrist 11.7215
rhand -16.9917 17.9052
rfingers 7.12502
rthumb 9.24336 -11.8722
lclavicle -5.64548e-014 2.18663e-015
lhumerus -31.5969 5.29196 7.2187
lradius 38.1175
lwrist 11.1715
lhand -29.4944 30.2155
lfingers 7.12502
lthumb -2.82914 60.1765
rfemur -30.7295 -14.0294 26.061
rtibia 60.1041
rfoot -26.2391 -9.21128
rtoes 2.7626
lfemur -34.2621 19.1846 -22.1061
ltibia 50.8629
lfoot -24.9784 6.69202
ltoes -13.9729
1584
root 3.09088 16.8502 -20.788 6.16091 -8.71053 -4.17623
lowerback 10.6616 -2.0877 0.301525
upperback -0.0816311 -2.63788 1.68694
thorax -6.00161 -1.2798 2.01101
lowerneck -2.67047 2.97723 12.6018
upperneck 19.567 4.73505 -10.454
head 6.90305 2.37305 -5.22548
rclavicle -1.98288e-014 1.19271e-015
rhumerus -11.9259 -19.4465 -18.4251
rradius 36.1776
rwrist 11.8285
rhand -16.0354 18.394
rfingers 7.12502
rthumb 10.166 -11.3404
lclavicle -1.98288e-014 1.19271e-015
lhumerus -31.8523 5.12332 7.4914
lradius 37.9391
lwrist 11.2452
lhand -29.7241 29.3889
lfingers 7.12502
lthumb -3.05103 59.3468
rfemur -30.847 -14.2217 26.2447
rtibia 59.5256
rfoot -26.5134 -8.77704
rtoes 1.7716
lfemur -34.2489 19.1042 -21.9843
ltibia 50.7026
lfoot -25.0729 6.53291
ltoes -13.8474
1585
root 3.08947 16.8566 -20.7767 6.35834 -8.64412 -4.60726
lowerback 10.564 -2.19855 0.791447
upperback -0.0704952 -2.71981 1.79851
thorax -5.95021 -1.33349 1.86075
lowerneck -2.6002 3.08059 12.4735
upperneck 19.3045 4.84021 -10.2218
head 6.81333 2.43182 -5.11143
rclavicle -4.07509e-014 1.47101e-014
rhumerus -11.9574 -18.835 -18.5639
rradius 36.5192
rwrist 11.2406
rhand -15.1162 18.1861
rfingers 7.12502
rthumb 11.0527 -11.5029
lclavicle -4.07509e-014 1.47101e-014
lhumerus -32.2288 5.12062 7.55048
lradius 37.9146
lwrist 11.4476
lhand -29.3502 29.1909
lfingers 7.12502
lthumb -2.68996 59.1537
rfemur -30.9691 -14.1354 26.7807
rtibia 58.9017
rfoot -26.6022 -8.44775
rtoes 1.95206
lfemur -34.3289 19.0479 -21.5325
ltibia 50.5542
lfoot -25.0146 6.6251
ltoes -14.1851
1586
root 3.08762 16.8682 -20.7595 6.37954 -8.61043 -4.87692
lowerback 10.5823 -2.25507 1.13399
upperback 0.00517418 -2.75104 1.84272
thorax -5.89423 -1.35859 1.71813
lowerneck -2.90092 3.13568 12.5359
upperneck 19.3556 4.86468 -10.1403
head 6.88738 2.44648 -5.09018
rclavicle -2.23633e-014 4.57205e-015
rhumerus -12.0424 -18.4328 -18.6623
rradius 36.7899
rwrist 10.8761
rhand -14.5338 17.9254
rfingers 7.12502
rthumb 11.6144 -11.7328
lclavicle -2.23633e-014 4.57205e-015
lhumerus -32.5516 5.20473 7.59989
lradius 38.0613
lwrist 11.4895
lhand -29.049 30.2192
lfingers 7.12502
lthumb -2.39907 60.1855
rfemur -30.8854 -14.0791 27.0853
rtibia 58.2806
rfoot -26.8785 -7.96426
rtoes 2.20886
lfemur -34.1185 19.0054 -21.1909
ltibia 50.3349
lfoot -25.0099 6.65413
ltoes -13.8508
1587
root 3.08218 16.8893 -20.7259 6.30139 -8.48399 -4.71973
lowerback 10.5844 -2.28617 1.05529
upperback -0.0116077 -2.80388 1.80536
thorax -5.9102 -1.38265 1.73193
lowerneck -3.00545 3.10086 12.6444
upperneck 19.3217 4.80687 -10.2151
head 6.89197 2.41839 -5.13676
rclavicle 3.0265e-014 2.54444e-014
rhumerus -12.0116 -18.8452 -18.6316
rradius 36.4308
rwrist 11.4331
rhand -13.9959 18.1701
rfingers 7.12502
rthumb 12.133 -11.4581
lclavicle 3.0265e-014 2.54444e-014
lhumerus -32.6145 5.33061 7.68911
lradius 37.853
lwrist 11.2666
lhand -29.3594 30.5453
lfingers 7.12502
lthumb -2.69883 60.508
rfemur -30.6956 -14.3249 26.9045
rtibia 57.644
rfoot -27.1905 -7.53731
rtoes 0.926434
lfemur -33.7244 18.9993 -21.3082
ltibia 50.0417
lfoot -25.0411 6.95823
ltoes -15.476
1588
root 3.07344 16.9088 -20.6952 6.29559 -8.37188 -4.59641
lowerback 10.6795 -2.28761 0.979553
upperback -0.171965 -2.81183 1.77731
thorax -6.13066 -1.38303 1.75643
lowerneck -2.93331 3.04947 12.7994
upperneck 19.2518 4.75 -10.3441
head 6.85541 2.3945 -5.21077
rclavicle 1.52567e-014 -4.96962e-015
rhumerus -12.2849 -18.6394 -18.4544
rradius 36.392
rwrist 11.4875
rhand -13.2626 18.1213
rfingers 7.12502
rthumb 12.84 -11.4638
lclavicle 1.52567e-014 -4.96962e-015
lhumerus -32.5497 5.3828 7.74781
lradius 37.5169
lwrist 10.9945
lhand -29.618 30.1284
lfingers 7.12502
lthumb -2.94852 60.0878
rfemur -30.5577 -14.4246 26.7808
rtibia 56.9732
rfoot -27.4353 -7.49381
rtoes -0.347804
lfemur -33.4265 18.9982 -21.4038
ltibia 49.7179
lfoot -24.9264 7.4632
ltoes -17.8014
1589
root 3.0668 16.9234 -20.6721 6.36855 -8.32362 -4.58578
lowerback 10.7942 -2.26119 1.05418
upperback -0.3506 -2.76354 1.74386
thorax -6.39067 -1.36025 1.68361
lowerneck -2.92461 3.01081 12.9262
upperneck 19.2745 4.69482 -10.3835
head 6.85813 2.37479 -5.25072
rclavicle -3.59303e-014 3.18055e-015
rhumerus -12.6402 -18.0792 -18.2219
rradius 36.5636
rwrist 11.0974
rhand -12.2168 17.9246
rfingers 7.12502
rthumb 13.8481 -11.5944
lclavicle -3.59303e-014 3.18055e-015
lhumerus -32.5382 5.17165 7.82495
lradius 37.45
lwrist 10.9931
lhand -29.4323 29.931
lfingers 7.12502
lthumb -2.76922 59.8927
rfemur -30.5708 -14.425 26.8272
rtibia 56.2892
rfoot -27.4866 -7.69441
rtoes -1.50397
lfemur -33.2208 18.8514 -21.381
ltibia 49.3903
lfoot -24.9706 7.29836
ltoes -16.8906
1590
root 3.06287 16.9369 -20.6506 6.48428 -8.50552 -4.66824
lowerback 10.7886 -2.19686 1.17505
upperback -0.439994 -2.66192 1.7303
thorax -6.49032 -1.31405 1.58802
lowerneck -2.96274 3.00103 12.983
upperneck 19.2396 4.66651 -10.3645
head 6.85156 2.36555 -5.25496
rclavicle -1.11816e-014 -1.78906e-014
rhumerus -12.4652 -18.5892 -18.1464
rradius 36.1087
rwrist 11.5501
rhand -11.0214 18.3371
rfingers 7.12502
rthumb 14.9998 -11.0997
lclavicle -1.11816e-014 -1.78906e-014
lhumerus -32.5826 4.98586 7.79973
lradius 37.3689
lwrist 11.1726
lhand -29.0943 30.0098
lfingers 7.12502
lthumb -2.44281 59.9756
rfemur -30.6677 -14.2681 26.98
rtibia 55.5677
rfoot -27.5421 -7.87544
rtoes -1.70807
lfemur -33.039 18.8198 -21.2736
ltibia 49.0904
lfoot -25.1653 6.6581
ltoes -13.7731
1591
root 3.05427 16.9561 -20.6294 6.68958 -8.78652 -4.65668
lowerback 10.5117 -2.0756 1.09219
upperback -0.39292 -2.51868 1.72832
thorax -6.28245 -1.24265 1.5954
lowerneck -3.10058 2.98633 12.9393
upperneck 19.0021 4.6174 -10.3366
head 6.7921 2.33632 -5.23496
rclavicle 2.83268e-014 -1.68967e-014
rhumerus -12.3074 -19.1741 -18.0103
rradius 35.7896
rwrist 11.9104
rhand -9.90417 18.5412
rfingers 7.12502
rthumb 16.0759 -10.812
lclavicle 2.83268e-014 -1.68967e-014
lhumerus -32.507 5.18372 7.70793
lradius 37.2251
lwrist 11.1472
lhand -28.9088 30.0616
lfingers 7.12502
lthumb -2.26364 60.0293
rfemur -30.8152 -13.8317 27.0149
rtibia 54.8217
rfoot -28.0395 -7.69652
rtoes 0.078539
lfemur -32.9948 18.9001 -21.3036
ltibia 48.7974
lfoot -25.1538 6.40593
ltoes -11.5403
